<svg width="512" height="512" viewBox="0 0 512 512" fill="none" xmlns="http://www.w3.org/2000/svg">
  <rect width="512" height="512" rx="132" fill="url(#paint0_linear)"/>
  <rect x="34" y="34" width="444" height="444" rx="108" fill="url(#paint1_radial)" fill-opacity="0.42"/>
  <path d="M317.6 167.2C297.6 151.8 273.3 144 245 144C181.2 144 134 192.5 134 255.5C134 319.3 181.8 366 246 366C275.7 366 301.2 357.5 321.6 341.3C332.1 333 332.9 317.3 323.4 308.2L301.9 287.5C294.4 280.3 282.9 279.9 274.3 285.6C266.4 290.8 257.1 293.4 246.3 293.4C224.6 293.4 207.8 277.1 207.8 255.1C207.8 233.6 223.9 216.6 246.1 216.6C256.9 216.6 266 219.4 273.7 224.6C282.1 230.3 293.8 229.9 301.2 222.8L322.3 202.8C332.6 193 328.8 175.8 317.6 167.2Z" fill="white"/>
  <path d="M338 145H373C385.7 145 396 155.3 396 168V344C396 356.7 385.7 367 373 367H338C325.3 367 315 356.7 315 344V168C315 155.3 325.3 145 338 145Z" fill="url(#paint2_linear)"/>
  <circle cx="356" cy="143" r="27" fill="#14B8A6"/>
  <defs>
    <linearGradient id="paint0_linear" x1="48" y1="38" x2="468" y2="486" gradientUnits="userSpaceOnUse">
      <stop stop-color="#14B8A6"/>
      <stop offset="0.42" stop-color="#7C3AED"/>
      <stop offset="1" stop-color="#080610"/>
    </linearGradient>
    <radialGradient id="paint1_radial" cx="0" cy="0" r="1" gradientUnits="userSpaceOnUse" gradientTransform="translate(124 86) rotate(47.5) scale(520)">
      <stop stop-color="white"/>
      <stop offset="1" stop-color="white" stop-opacity="0"/>
    </radialGradient>
    <linearGradient id="paint2_linear" x1="315" y1="145" x2="406" y2="360" gradientUnits="userSpaceOnUse">
      <stop stop-color="#C4B5FD"/>
      <stop offset="1" stop-color="#7C3AED"/>
    </linearGradient>
  </defs>
</svg>
